# xmcd
#
# Track frame offsets: 
#        150
#        14612
#        27795
#        42455
#        55910
#        70740
#        89060
#        99312
#        122852
#        139450
#        160397
#
# Disc length: 2422 seconds
#
# Revision: 11
# Processed by: cddbd v1.5.2PL0 Copyright (c) Steve Scherf et al.
# Submitted via: ExactAudioCopyFreeDBPlugin 1.0
#
DISCID=9d09740b
DTITLE=John Denver - John Denver's Greatest Hits
DYEAR=1973
DGENRE=Country
TTITLE0=Take Me Home, Country Roads
TTITLE1=Follow Me
TTITLE2=Starwood in Aspen
TTITLE3=For Baby (For Bobbie)
TTITLE4=Rhymes and Reasons
TTITLE5=Leaving, on a Jet Plane
TTITLE6=The Eagle and the Hawk
TTITLE7=Sunshine on My Shoulders
TTITLE8=Goodbye Again
TTITLE9=Poems, Prayers and Promises
TTITLE10=Rocky Mountain High
EXTD=YEAR: 1973
EXTT0=
EXTT1=
EXTT2=
EXTT3=
EXTT4=
EXTT5=
EXTT6=
EXTT7=
EXTT8=
EXTT9=
EXTT10=
PLAYORDER=
